<svg id="Gradient" viewBox="0 0 64 64" xmlns="http://www.w3.org/2000/svg" xmlns:xlink="http://www.w3.org/1999/xlink"><linearGradient id="linear-gradient" gradientUnits="userSpaceOnUse" x1="6.35" x2="57.65" y1="6.35" y2="57.65"><stop offset="0" stop-color="#f9b4ae"/><stop offset=".5" stop-color="#ec458d"/><stop offset=".56" stop-color="#e14591"/><stop offset=".66" stop-color="#c5479e"/><stop offset=".8" stop-color="#9749b3"/><stop offset=".96" stop-color="#584dcf"/><stop offset="1" stop-color="#474ed7"/></linearGradient><path d="m5.25 13.34v-4.34c0-2.07 1.68-3.75 3.75-3.75h46c2.07 0 3.75 1.68 3.75 3.75v4.34c-.95-.98-2.28-1.59-3.75-1.59h-46c-1.47 0-2.8.61-3.75 1.59zm3.75 6.41h46c1.47 0 2.8.61 3.75 1.59v-4.34c0-2.07-1.68-3.75-3.75-3.75h-46c-2.07 0-3.75 1.68-3.75 3.75v4.34c.95-.98 2.28-1.59 3.75-1.59zm49.75 5.25v30c0 2.07-1.68 3.75-3.75 3.75h-46c-2.07 0-3.75-1.68-3.75-3.75v-30c0-2.07 1.68-3.75 3.75-3.75h46c2.07 0 3.75 1.68 3.75 3.75zm-6 27c0-.41-.34-.75-.75-.75h-40c-.41 0-.75.34-.75.75s.34.75.75.75h40c.41 0 .75-.34.75-.75zm0-6c0-.41-.34-.75-.75-.75h-40c-.41 0-.75.34-.75.75s.34.75.75.75h40c.41 0 .75-.34.75-.75zm0-6c0-.41-.34-.75-.75-.75h-40c-.41 0-.75.34-.75.75s.34.75.75.75h40c.41 0 .75-.34.75-.75zm0-6c0-.41-.34-.75-.75-.75h-40c-.41 0-.75.34-.75.75s.34.75.75.75h40c.41 0 .75-.34.75-.75zm0-6c0-.41-.34-.75-.75-.75h-40c-.41 0-.75.34-.75.75s.34.75.75.75h40c.41 0 .75-.34.75-.75z" fill="url(#linear-gradient)"/></svg>