<svg id="Capa_1" enable-background="new 0 0 512 512" height="512" viewBox="0 0 512 512" width="512" xmlns="http://www.w3.org/2000/svg"><path d="m486 352h-460c-4.377 0-8.535-1.912-11.385-5.233-2.85-3.322-4.106-7.722-3.44-12.048l40-260c1.125-7.317 7.422-12.719 14.825-12.719h380c7.403 0 13.7 5.402 14.825 12.719l40 260c.666 4.326-.591 8.726-3.44 12.048-2.85 3.321-7.008 5.233-11.385 5.233z" fill="#4699fa"/><path d="m460.825 74.719c-1.125-7.317-7.422-12.719-14.825-12.719h-190v290h230c4.377 0 8.535-1.912 11.385-5.233 2.85-3.322 4.106-7.722 3.44-12.048z" fill="#3c87f5"/><path d="m376 210h-240c-8.284 0-15-6.716-15-15v-180c0-8.284 6.716-15 15-15h90c5.682 0 10.876 3.21 13.416 8.292l15.855 31.708h120.729c8.284 0 15 6.716 15 15v140c0 8.284-6.716 15-15 15z" fill="#676767"/><path d="m376 40h-120v170h120c8.284 0 15-6.716 15-15v-140c0-8.284-6.716-15-15-15z" fill="#505050"/><path d="m396 312h-280c-8.284 0-15-6.716-15-15v-180c0-8.284 6.716-15 15-15h90c5.682 0 10.876 3.21 13.416 8.292l15.855 31.708h160.729c8.284 0 15 6.716 15 15v140c0 8.284-6.716 15-15 15z" fill="#ff736e"/><path d="m396 142h-140v170h140c8.284 0 15-6.716 15-15v-140c0-8.284-6.716-15-15-15z" fill="#ff4641"/><path d="m416 412h-320c-8.284 0-15-6.716-15-15v-180c0-8.284 6.716-15 15-15h90c5.682 0 10.876 3.21 13.416 8.292l15.855 31.708h200.729c8.284 0 15 6.716 15 15v140c0 8.284-6.716 15-15 15z" fill="#ffd773"/><path d="m416 242h-160v170h160c8.284 0 15-6.716 15-15v-140c0-8.284-6.716-15-15-15z" fill="#ffbe2d"/><path d="m296.729 362h-81.459l-8.354-16.708c-2.541-5.082-7.735-8.292-13.416-8.292h-182.5v160c0 8.284 6.716 15 15 15h460c8.284 0 15-6.716 15-15v-160h-182.5c-5.682 0-10.875 3.21-13.416 8.292z" fill="#82d0ff"/><path d="m296.729 362h-40.729v150h230c8.284 0 15-6.716 15-15v-160h-182.5c-5.682 0-10.875 3.21-13.416 8.292z" fill="#60b4fa"/><path d="m306 452h-100c-8.284 0-15-6.716-15-15s6.716-15 15-15h100c8.284 0 15 6.716 15 15s-6.716 15-15 15z" fill="#ededed"/><path d="m306 422h-50v30h50c8.284 0 15-6.716 15-15s-6.716-15-15-15z" fill="#d7d7d7"/></svg>