<svg id="Capa_1" enable-background="new 0 0 512 512" height="512" viewBox="0 0 512 512" width="512" xmlns="http://www.w3.org/2000/svg"><path d="m500.982 336.651c-.006-.261-.02-.523-.04-.787-.021-.273-.048-.543-.083-.812-.015-.111-.017-.221-.034-.333l-40-260c-1.125-7.317-7.422-12.719-14.825-12.719h-55v-7c0-8.284-6.716-15-15-15h-120.729l-15.855-31.708c-2.54-5.082-7.734-8.292-13.416-8.292h-90c-8.284 0-15 6.716-15 15v47h-55c-7.403 0-13.7 5.402-14.825 12.719l-40 260c-.017.112-.02.222-.034.333-.035.269-.063.539-.083.812-.02.263-.033.525-.04.787-.003.117-.018.231-.018.349v160c0 8.284 6.716 15 15 15h460c8.284 0 15-6.716 15-15v-160c0-.118-.015-.232-.018-.349zm-67.851-244.651 35.385 230h-37.516v-65c0-8.284-6.716-15-15-15h-5v-85c0-8.284-6.716-15-15-15h-5v-50zm-107.131 230c-5.682 0-10.876 3.21-13.416 8.292l-15.855 31.708h-81.459l-15.854-31.708c-2.54-5.082-7.734-8.292-13.416-8.292h-75v-90h65.729l15.854 31.708c2.541 5.082 7.735 8.292 13.417 8.292h195v50zm-195-190h65.729l15.854 31.708c2.541 5.082 7.735 8.292 13.417 8.292h155v70h-165.729l-15.854-31.708c-2.541-5.082-7.735-8.292-13.417-8.292h-55zm20-102h65.729l15.854 31.708c2.541 5.082 7.735 8.292 13.417 8.292h115v72h-125.729l-15.854-31.708c-2.541-5.082-7.735-8.292-13.417-8.292h-55zm-72.131 62h42.131v10h-5c-8.284 0-15 6.716-15 15v85h-5c-8.284 0-15 6.716-15 15v105h-37.516zm392.131 390h-430v-130h135.729l15.854 31.708c2.541 5.082 7.735 8.292 13.417 8.292h100c5.682 0 10.876-3.21 13.416-8.292l15.855-31.708h135.729z"/><path d="m306 422h-100c-8.284 0-15 6.716-15 15s6.716 15 15 15h100c8.284 0 15-6.716 15-15s-6.716-15-15-15z"/></svg>